<?xml version="1.0" encoding="utf-8"?><!-- Uploaded to: SVG Repo, www.svgrepo.com, Generator: SVG Repo Mixer Tools -->
<svg width="800px" height="800px" viewBox="0 0 20 20" fill="none" xmlns="http://www.w3.org/2000/svg">
<path fill-rule="evenodd" clip-rule="evenodd" d="M10.3341 1.75396L5.6534 5.93183H2C1.44772 5.93183 1 6.37954 1 6.93183V12.9318C1 13.4841 1.44772 13.9318 2 13.9318H5.53532L10.3314 18.2437C10.9751 18.8223 12 18.3655 12 17.5V2.5C12 1.63618 10.9785 1.17875 10.3341 1.75396ZM6.6659 7.70891L10 4.73298V15.2563L6.87443 12.4463C6.70368 12.1394 6.37609 11.9318 6 11.9318H3V7.93183H5.75114C6.05292 8.01082 6.39317 7.95234 6.6659 7.70891Z" fill="#000000"/>
<path d="M15.4889 13.0688C15.1747 13.3388 14.7012 13.303 14.4312 12.9889C14.1612 12.6747 14.197 12.2012 14.5112 11.9312C14.5451 11.9021 14.5784 11.8705 14.6111 11.8366C14.7486 11.6941 14.872 11.5127 14.9728 11.3008C15.1512 10.9258 15.25 10.4758 15.25 10C15.25 9.24552 15.0002 8.56671 14.6111 8.16341C14.5784 8.12949 14.5451 8.09794 14.5112 8.06882C14.197 7.79884 14.1612 7.32532 14.4312 7.01118C14.7012 6.69703 15.1747 6.66123 15.4889 6.93121C15.5585 6.99105 15.6258 7.05473 15.6907 7.12202C16.3619 7.8178 16.75 8.87235 16.75 10C16.75 10.6958 16.6028 11.3662 16.3272 11.9454C16.1586 12.2997 15.9439 12.6156 15.6907 12.878C15.6258 12.9453 15.5585 13.009 15.4889 13.0688Z" fill="#000000"/>
<path d="M16.4113 16.1272C16.065 16.3543 15.6 16.2577 15.3729 15.9114C15.1457 15.565 15.2423 15.1001 15.5887 14.8729C15.7519 14.7658 15.9098 14.6509 16.0616 14.5287C16.2134 14.4065 16.359 14.2771 16.4979 14.1411C16.6367 14.005 16.7687 13.8625 16.8933 13.7139C17.0178 13.5654 17.1348 13.4111 17.2438 13.2516C17.3527 13.0921 17.4536 12.9276 17.5461 12.7585C17.6384 12.5896 17.7222 12.4164 17.7971 12.2393C17.8719 12.0626 17.9378 11.8823 17.9945 11.6989C18.051 11.5161 18.0984 11.3304 18.1363 11.1423C18.1741 10.9551 18.2026 10.7656 18.2216 10.5744C18.2405 10.3844 18.25 10.1929 18.25 10C18.25 9.80718 18.2405 9.6156 18.2216 9.42568C18.2026 9.23441 18.1741 9.04493 18.1363 8.85772C18.0984 8.66962 18.051 8.48393 17.9945 8.30115C17.9378 8.11775 17.8719 7.93743 17.7971 7.76072C17.7222 7.58369 17.6384 7.41043 17.5461 7.24153C17.4536 7.07247 17.3527 6.90792 17.2438 6.74848C17.1348 6.58891 17.0178 6.43461 16.8933 6.28613C16.7687 6.13758 16.6367 5.99502 16.4979 5.859C16.359 5.72293 16.2134 5.59354 16.0616 5.47135C15.9098 5.34914 15.7519 5.23426 15.5887 5.12716C15.2423 4.89999 15.1457 4.43505 15.3729 4.08869C15.6 3.74233 16.065 3.64571 16.4113 3.87289C16.6153 4.00666 16.8125 4.15018 17.0022 4.30288C17.1919 4.45561 17.374 4.61737 17.5477 4.78755C17.7214 4.95777 17.8866 5.13625 18.0426 5.32231C18.1987 5.50844 18.3455 5.70199 18.4823 5.90223C18.6192 6.10255 18.746 6.30939 18.8622 6.52202C18.9785 6.73469 19.0841 6.95295 19.1785 7.17608C19.2728 7.39899 19.356 7.62654 19.4275 7.85804C19.4989 8.08883 19.5587 8.32333 19.6067 8.56084C19.6544 8.79714 19.6903 9.03622 19.7143 9.27743C19.738 9.51659 19.75 9.75765 19.75 10C19.75 10.2424 19.738 10.4835 19.7143 10.7226C19.6903 10.9638 19.6544 11.2029 19.6067 11.4392C19.5587 11.6767 19.4989 11.9112 19.4275 12.142C19.356 12.3735 19.2728 12.6011 19.1785 12.824C19.0841 13.0471 18.9785 13.2654 18.8622 13.478C18.746 13.6907 18.6192 13.8975 18.4823 14.0978C18.3455 14.2981 18.1987 14.4916 18.0426 14.6777C17.8866 14.8638 17.7214 15.0423 17.5477 15.2125C17.374 15.3827 17.1919 15.5444 17.0022 15.6972C16.8125 15.8499 16.6153 15.9934 16.4113 16.1272Z" fill="#000000"/>
<path d="M1.36429 3.77196C0.937965 3.42087 0.876976 2.79065 1.22807 2.36432C1.57916 1.938 2.20938 1.87701 2.6357 2.2281L19.6357 16.2281C20.062 16.5792 20.123 17.2094 19.7719 17.6357C19.4208 18.0621 18.7906 18.1231 18.3643 17.772L1.36429 3.77196Z" fill="#000000"/>
</svg>