<?xml version="1.0" ?>
<!DOCTYPE svg  PUBLIC '-//W3C//DTD SVG 1.1//EN'  'http://www.w3.org/Graphics/SVG/1.1/DTD/svg11.dtd'>
<!-- Uploaded to: SVG Repo, www.svgrepo.com, Generator: SVG Repo Mixer Tools -->
<svg fill="#000000" width="800px" height="800px" viewBox="0 0 32 32" style="fill-rule:evenodd;clip-rule:evenodd;stroke-linejoin:round;stroke-miterlimit:2;" version="1.1" xml:space="preserve" xmlns="http://www.w3.org/2000/svg" xmlns:serif="http://www.serif.com/" xmlns:xlink="http://www.w3.org/1999/xlink">
<g id="Icon">
<path d="M5.003,15.386c-0.776,0.808 -1.253,1.906 -1.253,3.114c-0,2.353 1.809,4.286 4.111,4.483l0,0.017c0,0.552 0.448,1 1,1l3.139,0c0.552,0 1,-0.448 1,-1l0,-9c0,-0.552 -0.448,-1 -1,-1l-3.139,0c-0.552,0 -1,0.448 -1,1l0,0.017c-0.276,0.023 -0.546,0.072 -0.806,0.144c0.221,-3.123 1.105,-5.455 2.52,-7.049c1.588,-1.79 3.834,-2.605 6.425,-2.605c2.594,-0 4.844,0.765 6.434,2.51c1.433,1.574 2.319,3.907 2.521,7.085c-0.264,-0.057 -0.537,-0.091 -0.816,-0.1l-0,-0.002c-0,-0.552 -0.448,-1 -1,-1l-3.139,0c-0.552,0 -1,0.448 -1,1l-0,9c-0,0.552 0.448,1 1,1l3.139,0c0.552,0 1,-0.448 1,-1l-0,-0.002c0.381,-0.012 0.75,-0.071 1.101,-0.171l0,2.923c0,0.138 -0.112,0.25 -0.25,0.25l-3.37,0l0,-0.414c0,-0.552 -0.447,-1 -1,-1l-5.24,0c-0.553,0 -1,0.448 -1,1l-0,2.828c-0,0.552 0.447,1 1,1l5.24,-0c0.553,-0 1,-0.448 1,-1l0,-0.414l3.37,0c1.242,0 2.25,-1.008 2.25,-2.25l0,-4.129c0.78,-0.809 1.26,-1.909 1.26,-3.121c0,-1.333 -0.581,-2.531 -1.503,-3.356c-0.068,-4.349 -1.233,-7.441 -3.085,-9.473c-1.961,-2.154 -4.711,-3.164 -7.912,-3.164c-3.204,-0 -5.958,1.064 -7.921,3.278c-1.853,2.088 -3.014,5.24 -3.076,9.601Zm11.377,11.2l3.24,0c0,0 0,0.828 0,0.828c0,-0 -3.24,-0 -3.24,-0l-0,-0.828Zm5.759,-11.586l-0,7c-0,0 -1.139,0 -1.139,0c-0,-0 -0,-7 -0,-7l1.139,0Zm-11.139,0l-0,7c0,0 -1.139,0 -1.139,0c0,-0 0,-7 0,-7l1.139,0Zm13.139,1.004l-0,4.992c1.315,-0.072 2.361,-1.163 2.361,-2.496c-0,-1.333 -1.046,-2.424 -2.361,-2.496Zm-16.278,0.026c-1.195,0.187 -2.111,1.222 -2.111,2.47c-0,1.248 0.916,2.283 2.111,2.47l0,-4.94Z"/>
</g>
</svg>