<?xml version="1.0" encoding="utf-8"?><!-- Uploaded to: SVG Repo, www.svgrepo.com, Generator: SVG Repo Mixer Tools -->
<svg width="800px" height="800px" viewBox="0 0 24 24" fill="none" xmlns="http://www.w3.org/2000/svg">
<path fill-rule="evenodd" clip-rule="evenodd" d="M3.70711 2.29289C3.31658 1.90237 2.68342 1.90237 2.29289 2.29289C1.90237 2.68342 1.90237 3.31658 2.29289 3.70711L3.47958 4.89379C2.57683 5.6272 2 6.74624 2 8V16C2 18.2091 3.79086 20 6 20H13C14.5123 20 15.8285 19.1608 16.5085 17.9227L20.2929 21.7071C20.6834 22.0976 21.3166 22.0976 21.7071 21.7071C22.0976 21.3166 22.0976 20.6834 21.7071 20.2929L3.70711 2.29289ZM22 15.7547C22 16.423 21.6945 16.9694 21.2452 17.3219C21.0728 17.4572 20.8307 17.4164 20.6757 17.2615L8.26777 4.85355C7.95278 4.53857 8.17587 4 8.62132 4H13C15.2091 4 17 5.79086 17 8V8.25466L18.6621 6.75879C19.9491 5.60045 22 6.51384 22 8.24538V15.7547Z" fill="#000000"/>
</svg>